<svg width="24" height="24" viewBox="0 0 24 24" fill="none" xmlns="http://www.w3.org/2000/svg">
<path d="M18.99 3H5.01C5.00448 3 5 3.00448 5 3.01V21.9772C5 21.9859 5.01035 21.9905 5.01676 21.9846L6.627 20.5058C6.63064 20.5025 6.63618 20.5023 6.64003 20.5054L8.4933 21.9946C8.49715 21.9977 8.50269 21.9975 8.50633 21.9942L10.127 20.5058C10.1306 20.5025 10.1362 20.5023 10.14 20.5054L11.9933 21.9946C11.9972 21.9977 12.0027 21.9975 12.0063 21.9942L13.627 20.5058C13.6306 20.5025 13.6362 20.5023 13.64 20.5054L15.4933 21.9946C15.4972 21.9977 15.5027 21.9975 15.5063 21.9942L17.127 20.5058C17.1306 20.5025 17.1362 20.5023 17.14 20.5054L18.9837 21.9869C18.9903 21.9922 19 21.9875 19 21.9791V3.01C19 3.00448 18.9955 3 18.99 3Z" stroke="#FFAC4B"/>
<path d="M13 6L11 12" stroke="#FFAC4B" stroke-linecap="round"/>
<path d="M8 15L16 15" stroke="#FFAC4B" stroke-linecap="round"/>
<path d="M8 17L16 17" stroke="#FFAC4B" stroke-linecap="round"/>
<path d="M10.5 8C10.5 8.45456 10.3612 8.84684 10.1607 9.11421C9.96025 9.38143 9.72155 9.5 9.5 9.5C9.27845 9.5 9.03975 9.38143 8.83934 9.11421C8.63881 8.84684 8.5 8.45456 8.5 8C8.5 7.54544 8.63881 7.15316 8.83934 6.88579C9.03975 6.61857 9.27845 6.5 9.5 6.5C9.72155 6.5 9.96025 6.61857 10.1607 6.88579C10.3612 7.15316 10.5 7.54544 10.5 8Z" stroke="#FFAC4B"/>
<path d="M15.5 10C15.5 10.4546 15.3612 10.8468 15.1607 11.1142C14.9602 11.3814 14.7215 11.5 14.5 11.5C14.2785 11.5 14.0398 11.3814 13.8393 11.1142C13.6388 10.8468 13.5 10.4546 13.5 10C13.5 9.54544 13.6388 9.15316 13.8393 8.88579C14.0398 8.61857 14.2785 8.5 14.5 8.5C14.7215 8.5 14.9602 8.61857 15.1607 8.88579C15.3612 9.15316 15.5 9.54544 15.5 10Z" stroke="#FFAC4B"/>
</svg>
