<svg width="24" height="19" viewBox="0 0 24 19" fill="none" xmlns="http://www.w3.org/2000/svg">
<path d="M20.203 9.16667C20.203 13.969 16.4418 17.8333 11.8369 17.8333C7.23193 17.8333 3.4707 13.969 3.4707 9.16667C3.4707 4.36436 7.23193 0.5 11.8369 0.5C16.4418 0.5 20.203 4.36436 20.203 9.16667Z" stroke="#FFAC4B"/>
<path d="M20.3241 7.16772C20.6172 7.10854 20.9194 7.119 21.208 7.19832C21.4966 7.27763 21.7639 7.42371 21.9899 7.62553C22.2158 7.82735 22.3944 8.07963 22.5122 8.36329C22.63 8.64696 22.684 8.95461 22.6699 9.26297C22.6558 9.57134 22.5741 9.87237 22.431 10.1433C22.2879 10.4143 22.0871 10.648 21.8438 10.827C21.6005 11.0059 21.321 11.1253 21.0265 11.1762C20.732 11.227 20.4301 11.208 20.1438 11.1206" stroke="#FFAC4B"/>
<path d="M3.65863 7.25533C3.36451 7.14194 3.04845 7.10285 2.73677 7.14131C2.42508 7.17977 2.1268 7.29466 1.86675 7.47643C1.60671 7.6582 1.39244 7.90157 1.24178 8.18628C1.09112 8.47099 1.00843 8.7888 1.00061 9.11323C0.99279 9.43767 1.06006 9.75934 1.19681 10.0515C1.33357 10.3436 1.53585 10.5977 1.78681 10.7926C2.03777 10.9876 2.33015 11.1177 2.6396 11.1721C2.94904 11.2266 3.26659 11.2038 3.5658 11.1057" stroke="#FFAC4B"/>
<path d="M14.5458 11.7434C14.9029 11.685 15.2196 11.6266 15.4576 11.5806C15.3375 12.2933 14.9982 12.9567 14.4795 13.4746C13.822 14.1311 12.9301 14.5 12 14.5C11.0699 14.5 10.178 14.1311 9.52052 13.4746C9.00181 12.9567 8.66252 12.2933 8.54243 11.5806C8.78042 11.6266 9.09708 11.685 9.45422 11.7434C10.2231 11.8692 11.2078 12 12 12C12.7922 12 13.7769 11.8692 14.5458 11.7434Z" stroke="#FFAC4B"/>
<path d="M7.41016 8.65668C7.41016 8.37882 7.51707 8.11556 7.70236 7.924C7.88709 7.733 8.13403 7.62891 8.38785 7.62891C8.64167 7.62891 8.8886 7.733 9.07334 7.924C9.25862 8.11556 9.36554 8.37882 9.36554 8.65668" stroke="#FFAC4B"/>
<path d="M14.3066 8.65668C14.3066 8.37882 14.4136 8.11556 14.5988 7.924C14.7836 7.733 15.0305 7.62891 15.2843 7.62891C15.5382 7.62891 15.7851 7.733 15.9698 7.924C16.1551 8.11556 16.262 8.37882 16.262 8.65668" stroke="#FFAC4B"/>
<path d="M11.8364 0.509766C9.86627 1.01902 9.37372 2.5468 10.8514 3.56532C12.329 4.58384 14.792 2.5468 12.3292 2.03754" stroke="#FFAC4B" stroke-linecap="round"/>
<path d="M8.88041 5.09277C8.38785 5.09277 7.30421 5.29648 6.91016 6.11129" stroke="#FFAC4B" stroke-linecap="round"/>
<path d="M14.7915 5.09277C15.284 5.09277 16.3677 5.29648 16.7617 6.11129" stroke="#FFAC4B" stroke-linecap="round"/>
</svg>
