<svg width="24" height="24" viewBox="0 0 24 24" fill="none" xmlns="http://www.w3.org/2000/svg">
<path d="M6.42689 9.08383C6.86037 9.08383 7.218 9.14371 7.49976 9.26347C7.78393 9.38057 7.99586 9.56021 8.13554 9.8024C8.27522 10.0446 8.34506 10.3533 8.34506 10.7285C8.34506 11.0373 8.29448 11.2954 8.19334 11.503C8.09219 11.7079 7.95974 11.8743 7.79597 12.002C7.63221 12.1297 7.45762 12.2282 7.27218 12.2974L8.72074 14.9202H8.00549L6.71226 12.485H5.6141V14.9202H5V9.08383H6.42689ZM6.39076 9.67066H5.6141V11.9102H6.45217C6.88325 11.9102 7.19993 11.813 7.40223 11.6188C7.60693 11.4245 7.70928 11.1384 7.70928 10.7605C7.70928 10.3639 7.60091 10.0832 7.38416 9.91816C7.16983 9.75316 6.8387 9.67066 6.39076 9.67066Z" fill="#FFAC4B"/>
<path d="M14.0898 9.08383V12.8603C14.0898 13.2728 14.0139 13.6401 13.8622 13.9621C13.7129 14.2841 13.4865 14.5383 13.1831 14.7246C12.8796 14.9082 12.4991 15 12.0415 15C11.3889 15 10.8916 14.8044 10.5496 14.4132C10.2101 14.022 10.0403 13.499 10.0403 12.8443V9.08383H10.658V12.8643C10.658 13.3593 10.776 13.7412 11.012 14.01C11.2504 14.2788 11.6056 14.4132 12.0777 14.4132C12.4004 14.4132 12.6641 14.3493 12.8688 14.2216C13.0759 14.0912 13.2288 13.9102 13.3275 13.6786C13.4287 13.4444 13.4793 13.1743 13.4793 12.8683V9.08383H14.0898Z" fill="#FFAC4B"/>
<path d="M19 13.3673C19 13.7132 18.9217 14.0086 18.7652 14.2535C18.6111 14.4957 18.3943 14.6806 18.115 14.8084C17.8356 14.9361 17.5069 15 17.1288 15C16.9289 15 16.7399 14.9894 16.5617 14.9681C16.3834 14.9468 16.2197 14.9162 16.0704 14.8762C15.9211 14.8363 15.7898 14.7871 15.6766 14.7285V14.0778C15.8572 14.1603 16.0776 14.2375 16.3377 14.3094C16.5978 14.3786 16.8699 14.4132 17.1541 14.4132C17.419 14.4132 17.643 14.3746 17.826 14.2974C18.009 14.2176 18.1475 14.1045 18.2414 13.9581C18.3377 13.809 18.3859 13.6307 18.3859 13.4232C18.3859 13.2236 18.3462 13.0572 18.2667 12.9242C18.1872 12.7884 18.0548 12.666 17.8693 12.5569C17.6863 12.4451 17.4358 12.3267 17.118 12.2016C16.894 12.1138 16.6965 12.018 16.5255 11.9142C16.3545 11.8077 16.2113 11.688 16.0957 11.5549C15.9801 11.4218 15.8922 11.2675 15.832 11.0918C15.7742 10.9162 15.7453 10.7152 15.7453 10.489C15.7453 10.1776 15.8163 9.91151 15.9584 9.69062C16.1029 9.46707 16.3016 9.29674 16.5544 9.17964C16.8097 9.05988 17.1023 9 17.4322 9C17.714 9 17.9741 9.02927 18.2125 9.08782C18.4533 9.14637 18.6737 9.22488 18.8736 9.32335L18.6821 9.90619C18.4919 9.81836 18.2896 9.74518 18.0752 9.68663C17.8633 9.62808 17.6442 9.5988 17.4178 9.5988C17.1914 9.5988 17 9.63606 16.8434 9.71058C16.6893 9.78244 16.5713 9.8849 16.4894 10.018C16.4075 10.151 16.3666 10.3094 16.3666 10.493C16.3666 10.6979 16.4051 10.8683 16.4822 11.004C16.5617 11.1397 16.6869 11.2608 16.8579 11.3673C17.0313 11.4711 17.26 11.5802 17.5442 11.6946C17.8549 11.8197 18.1186 11.9528 18.3353 12.0938C18.5521 12.2322 18.717 12.4025 18.8302 12.6048C18.9434 12.8044 19 13.0585 19 13.3673Z" fill="#FFAC4B"/>
<path d="M6.42689 9.08383C6.86037 9.08383 7.218 9.14371 7.49976 9.26347C7.78393 9.38057 7.99586 9.56021 8.13554 9.8024C8.27522 10.0446 8.34506 10.3533 8.34506 10.7285C8.34506 11.0373 8.29448 11.2954 8.19334 11.503C8.09219 11.7079 7.95974 11.8743 7.79597 12.002C7.63221 12.1297 7.45762 12.2282 7.27218 12.2974L8.72074 14.9202H8.00549L6.71226 12.485H5.6141V14.9202H5V9.08383H6.42689ZM6.39076 9.67066H5.6141V11.9102H6.45217C6.88325 11.9102 7.19993 11.813 7.40223 11.6188C7.60693 11.4245 7.70928 11.1384 7.70928 10.7605C7.70928 10.3639 7.60091 10.0832 7.38416 9.91816C7.16983 9.75316 6.8387 9.67066 6.39076 9.67066Z" stroke="#FFAC4B" stroke-width="0.5"/>
<path d="M14.0898 9.08383V12.8603C14.0898 13.2728 14.0139 13.6401 13.8622 13.9621C13.7129 14.2841 13.4865 14.5383 13.1831 14.7246C12.8796 14.9082 12.4991 15 12.0415 15C11.3889 15 10.8916 14.8044 10.5496 14.4132C10.2101 14.022 10.0403 13.499 10.0403 12.8443V9.08383H10.658V12.8643C10.658 13.3593 10.776 13.7412 11.012 14.01C11.2504 14.2788 11.6056 14.4132 12.0777 14.4132C12.4004 14.4132 12.6641 14.3493 12.8688 14.2216C13.0759 14.0912 13.2288 13.9102 13.3275 13.6786C13.4287 13.4444 13.4793 13.1743 13.4793 12.8683V9.08383H14.0898Z" stroke="#FFAC4B" stroke-width="0.5"/>
<path d="M19 13.3673C19 13.7132 18.9217 14.0086 18.7652 14.2535C18.6111 14.4957 18.3943 14.6806 18.115 14.8084C17.8356 14.9361 17.5069 15 17.1288 15C16.9289 15 16.7399 14.9894 16.5617 14.9681C16.3834 14.9468 16.2197 14.9162 16.0704 14.8762C15.9211 14.8363 15.7898 14.7871 15.6766 14.7285V14.0778C15.8572 14.1603 16.0776 14.2375 16.3377 14.3094C16.5978 14.3786 16.8699 14.4132 17.1541 14.4132C17.419 14.4132 17.643 14.3746 17.826 14.2974C18.009 14.2176 18.1475 14.1045 18.2414 13.9581C18.3377 13.809 18.3859 13.6307 18.3859 13.4232C18.3859 13.2236 18.3462 13.0572 18.2667 12.9242C18.1872 12.7884 18.0548 12.666 17.8693 12.5569C17.6863 12.4451 17.4358 12.3267 17.118 12.2016C16.894 12.1138 16.6965 12.018 16.5255 11.9142C16.3545 11.8077 16.2113 11.688 16.0957 11.5549C15.9801 11.4218 15.8922 11.2675 15.832 11.0918C15.7742 10.9162 15.7453 10.7152 15.7453 10.489C15.7453 10.1776 15.8163 9.91151 15.9584 9.69062C16.1029 9.46707 16.3016 9.29674 16.5544 9.17964C16.8097 9.05988 17.1023 9 17.4322 9C17.714 9 17.9741 9.02927 18.2125 9.08782C18.4533 9.14637 18.6737 9.22488 18.8736 9.32335L18.6821 9.90619C18.4919 9.81836 18.2896 9.74518 18.0752 9.68663C17.8633 9.62808 17.6442 9.5988 17.4178 9.5988C17.1914 9.5988 17 9.63606 16.8434 9.71058C16.6893 9.78244 16.5713 9.8849 16.4894 10.018C16.4075 10.151 16.3666 10.3094 16.3666 10.493C16.3666 10.6979 16.4051 10.8683 16.4822 11.004C16.5617 11.1397 16.6869 11.2608 16.8579 11.3673C17.0313 11.4711 17.26 11.5802 17.5442 11.6946C17.8549 11.8197 18.1186 11.9528 18.3353 12.0938C18.5521 12.2322 18.717 12.4025 18.8302 12.6048C18.9434 12.8044 19 13.0585 19 13.3673Z" stroke="#FFAC4B" stroke-width="0.5"/>
<circle cx="12" cy="12" r="9.5" stroke="#FFAC4B"/>
</svg>
