<svg width="21" height="21" viewBox="0 0 21 21" fill="none" xmlns="http://www.w3.org/2000/svg">
<path d="M15.5294 10.4374V14.376C15.5294 14.376 13.8529 13.251 10.5 13.251C7.14706 13.251 5.47059 14.376 5.47059 14.376V10.4374C5.47059 8.74866 4.46951 8.18848 3.2353 8.18848C2.00108 8.18848 1 8.74988 1 10.4374C1 13.2488 1.15651 18.3116 1.55846 18.3124C6.58781 18.3223 15.5291 18.3113 19.4409 18.3124C19.729 18.3125 20 13.2488 20 10.4374C20 8.74988 18.9989 8.18848 17.7647 8.18848C16.5305 8.18848 15.5294 8.74988 15.5294 10.4374Z" stroke="#FFAC4B"/>
<path d="M3.79297 18.875V20" stroke="#FFAC4B" stroke-linecap="round"/>
<path d="M17.2051 18.875V20" stroke="#FFAC4B" stroke-linecap="round"/>
<path d="M2.99913 8.00018C2.99913 8.00018 2.45535 4.04362 3.99913 2.49987C5.49902 1 15.4991 1.00018 16.9991 2.49987C18.543 4.04343 17.9992 7.99999 17.9992 7.99999" stroke="#FFAC4B"/>
</svg>
