<svg width="24" height="24" viewBox="0 0 24 24" fill="none" xmlns="http://www.w3.org/2000/svg">
<path d="M3 6.00189C3 2.40189 11.0606 1.16856 15.0909 1.00189C16.6023 0.939276 7.53314 3.5 9.04545 6.50189C10.8078 10 18.8598 10.7519 21 15C23.1402 19.2481 18.1136 22.0019 18.1136 22.0019H5.51894C5.51894 20.0019 10 20.0019 10 16C10 11.9981 3 10.5019 3 6.00189Z" stroke="#FFAC4B" stroke-width="1.5"/>
<path d="M6.00026 6.49943C6.00026 8.49731 8.50009 9.99959 11.0003 11.9994C13.5004 13.9993 14.0001 17.0021 12.5001 19.5021" stroke="#FFAC4B" stroke-linecap="round"/>
<path d="M14.9999 13.502C17.9998 15.0005 18 17.5022 16.0805 19.5322" stroke="#FFAC4B" stroke-linecap="round"/>
</svg>
