<svg width="16" height="21" viewBox="0 0 16 21" fill="none" xmlns="http://www.w3.org/2000/svg">
<rect x="1" y="1" width="14" height="19" rx="0.1" stroke="#FFAC4B"/>
<path d="M3 17L13 17" stroke="#FFAC4B" stroke-linecap="round"/>
<path d="M8 14C10.7614 14 13 11.7614 13 9C13 6.23858 10.7614 4 8 4C5.23858 4 3 6.23858 3 9C3 11.7614 5.23858 14 8 14Z" stroke="#FFAC4B" stroke-linecap="round" stroke-linejoin="round"/>
<path d="M3 9L13 9" stroke="#FFAC4B" stroke-linecap="round" stroke-linejoin="round"/>
<path d="M7.92672 4.08139C7.96574 4.03742 8.03426 4.03742 8.07328 4.08139C9.27838 5.43921 9.96214 7.18254 10 9C9.96214 10.8175 9.27838 12.5608 8.07328 13.9186C8.03426 13.9626 7.96574 13.9626 7.92672 13.9186C6.72162 12.5608 6.03786 10.8175 6 9C6.03786 7.18254 6.72162 5.43921 7.92672 4.08139Z" stroke="#FFAC4B" stroke-linecap="round" stroke-linejoin="round"/>
<line x1="1.59466" y1="19.7073" x2="14.5947" y2="1.70726" stroke="#FFAC4B"/>
</svg>
