<svg width="22" height="22" viewBox="0 0 22 22" fill="none" xmlns="http://www.w3.org/2000/svg">
<path d="M11.7493 5.57636C11.4902 4.88328 10.5098 4.88329 10.2507 5.57636L9.16635 8.4762L6.07337 8.61135C5.33413 8.64365 5.03119 9.57601 5.61026 10.0367L8.0331 11.964L7.20585 14.9474C7.00813 15.6604 7.80124 16.2366 8.41829 15.8283L11 14.1196L13.5817 15.8283C14.1988 16.2366 14.9919 15.6604 14.7942 14.9474L13.9669 11.964L16.3897 10.0367C16.9688 9.57601 16.6659 8.64365 15.9266 8.61135L12.8336 8.4762L11.7493 5.57636ZM11.1104 14.0465C11.1103 14.0466 11.1101 14.0467 11.11 14.0468L11.1104 14.0465ZM10.89 14.0468C10.8899 14.0467 10.8897 14.0466 10.8896 14.0465L10.89 14.0468Z" stroke="#FFAC4B"/>
<path d="M9.83387 1.36506C10.5287 0.878313 11.4713 0.878312 12.1661 1.36506L13.3358 2.18449C13.6755 2.42245 14.0853 2.55032 14.5057 2.54955L15.9535 2.5469C16.8136 2.54533 17.5762 3.07744 17.8404 3.86344L18.2852 5.18666C18.4143 5.57091 18.6676 5.90567 19.0082 6.14239L20.1811 6.95754C20.8779 7.44174 21.1692 8.30271 20.9018 9.08774L20.4518 10.4093C20.3211 10.7931 20.3211 11.2069 20.4518 11.5907L20.9018 12.9123C21.1692 13.6973 20.8779 14.5583 20.1811 15.0425L19.0082 15.8576C18.6676 16.0943 18.4143 16.4291 18.2852 16.8133L17.8404 18.1366C17.5762 18.9226 16.8136 19.4547 15.9536 19.4531L14.5057 19.4505C14.0853 19.4497 13.6755 19.5775 13.3358 19.8155L12.1661 20.6349C11.4713 21.1217 10.5287 21.1217 9.83387 20.6349L8.66418 19.8155C8.3245 19.5775 7.91472 19.4497 7.49428 19.4505L6.04645 19.4531C5.18643 19.4547 4.42382 18.9226 4.15961 18.1366L3.71483 16.8133C3.58567 16.4291 3.33241 16.0943 2.9918 15.8576L1.81886 15.0425C1.12212 14.5583 0.830832 13.6973 1.09815 12.9123L1.54818 11.5907C1.67886 11.2069 1.67886 10.7931 1.54818 10.4093L1.09815 9.08774C0.830833 8.30271 1.12212 7.44174 1.81886 6.95754L2.9918 6.14239C3.33241 5.90568 3.58567 5.57092 3.71483 5.18666L4.15961 3.86344C4.42382 3.07744 5.18643 2.54533 6.04645 2.5469L7.49428 2.54955C7.91472 2.55032 8.3245 2.42245 8.66417 2.18449L9.83387 1.36506Z" stroke="#FFAC4B" stroke-width="1.5"/>
</svg>
