<svg width="24" height="24" viewBox="0 0 24 24" fill="none" xmlns="http://www.w3.org/2000/svg">
<path d="M5.2926 5.99998C3.83723 7.62544 3.0224 9.72455 2.99995 11.9062C2.94463 16.8914 7.01479 20.9906 11.9999 21C16.9781 21.0094 20.9999 16.9767 20.9999 12C20.9999 7.09967 17.0835 3.11201 12.2109 2.99998C12.1835 2.9991 12.1561 3.00375 12.1305 3.01366C12.105 3.02356 12.0816 3.03852 12.0619 3.05764C12.0423 3.07675 12.0266 3.09964 12.016 3.12492C12.0053 3.15021 11.9999 3.17739 11.9999 3.20483V7.12498" stroke="#FFAC4B" stroke-linecap="round" stroke-linejoin="round"/>
<path d="M10.9397 13.0611L7.23658 7.76427C7.18534 7.69088 7.16158 7.6018 7.16944 7.51265C7.17731 7.42349 7.2163 7.33995 7.27959 7.27666C7.34288 7.21337 7.42642 7.17438 7.51558 7.16651C7.60473 7.15865 7.69381 7.18241 7.7672 7.23365L13.0641 10.9368C13.389 11.1708 13.6087 11.5233 13.6757 11.918C13.7427 12.3127 13.6516 12.718 13.4221 13.0461C13.1927 13.3742 12.8433 13.5988 12.4495 13.6712C12.0557 13.7437 11.6492 13.6582 11.318 13.4333C11.1715 13.3318 11.0436 13.2059 10.9397 13.0611Z" fill="#FFAC4B"/>
</svg>
