<svg width="34" height="34" viewBox="0 0 34 34" fill="none" xmlns="http://www.w3.org/2000/svg">
<rect width="34" height="34" rx="17" fill="#E4405F"/>
<g clip-path="url(#clip0_119_1258)">
<path d="M17.0176 9.58203C18.2246 9.58203 19.0156 9.58789 19.3906 9.59961C19.7656 9.61133 20.1875 9.62305 20.6562 9.63477C21.1016 9.6582 21.4531 9.70215 21.7109 9.7666C21.9688 9.83105 22.1738 9.89258 22.3262 9.95117C22.5371 10.0332 22.7246 10.127 22.8887 10.2324C23.0527 10.3379 23.2109 10.4668 23.3633 10.6191C23.5273 10.7832 23.6621 10.9443 23.7676 11.1025C23.873 11.2607 23.9668 11.4453 24.0488 11.6562C24.1074 11.8203 24.1689 12.0312 24.2334 12.2891C24.2979 12.5469 24.3359 12.8926 24.3477 13.3262C24.3711 13.8066 24.3857 14.2344 24.3916 14.6094C24.3975 14.9844 24.4004 15.7754 24.4004 16.9824C24.4004 18.1777 24.3975 18.9629 24.3916 19.3379C24.3857 19.7129 24.3711 20.1406 24.3477 20.6211C24.3359 21.0547 24.2979 21.4004 24.2334 21.6582C24.1689 21.916 24.1074 22.127 24.0488 22.291C23.9668 22.502 23.873 22.6895 23.7676 22.8535C23.6621 23.0176 23.5332 23.1758 23.3809 23.3281C23.2168 23.4805 23.0527 23.6094 22.8887 23.7148C22.7246 23.8203 22.543 23.9141 22.3438 23.9961C22.1797 24.0664 21.9688 24.1309 21.7109 24.1895C21.4531 24.248 21.1016 24.2891 20.6562 24.3125C20.1875 24.3359 19.7656 24.3506 19.3906 24.3564C19.0156 24.3623 18.2246 24.3652 17.0176 24.3652C15.8223 24.3652 15.0342 24.3623 14.6533 24.3564C14.2725 24.3506 13.8477 24.3359 13.3789 24.3125C12.9336 24.2891 12.582 24.248 12.3242 24.1895C12.0664 24.1309 11.8613 24.0664 11.709 23.9961C11.498 23.9141 11.3105 23.8203 11.1465 23.7148C10.9824 23.6094 10.8242 23.4805 10.6719 23.3281C10.5078 23.1758 10.373 23.0176 10.2676 22.8535C10.1621 22.6895 10.0684 22.502 9.98633 22.291C9.92773 22.1387 9.86621 21.9307 9.80176 21.667C9.7373 21.4033 9.69922 21.0547 9.6875 20.6211C9.66406 20.1406 9.64941 19.7129 9.64355 19.3379C9.6377 18.9629 9.63477 18.1777 9.63477 16.9824C9.63477 15.7754 9.6377 14.9844 9.64355 14.6094C9.64941 14.2344 9.66406 13.8125 9.6875 13.3438C9.69922 12.8984 9.7373 12.5469 9.80176 12.2891C9.86621 12.0312 9.92773 11.8203 9.98633 11.6562C10.0684 11.457 10.1621 11.2754 10.2676 11.1113C10.373 10.9473 10.5078 10.7832 10.6719 10.6191C10.8242 10.4668 10.9824 10.3379 11.1465 10.2324C11.3105 10.127 11.498 10.0332 11.709 9.95117C11.8613 9.89258 12.0664 9.83105 12.3242 9.7666C12.582 9.70215 12.9336 9.6582 13.3789 9.63477C13.8477 9.62305 14.2695 9.61133 14.6445 9.59961C15.0195 9.58789 15.8105 9.58203 17.0176 9.58203ZM17.0176 7.96484C15.7988 7.96484 14.9961 7.96777 14.6094 7.97363C14.2227 7.97949 13.7891 7.99414 13.3086 8.01758C12.8281 8.04102 12.4121 8.08789 12.0605 8.1582C11.709 8.22852 11.3926 8.32227 11.1113 8.43945C10.8184 8.55664 10.543 8.69727 10.2852 8.86133C10.0273 9.02539 9.76953 9.23047 9.51172 9.47656C9.26562 9.72266 9.06055 9.97754 8.89648 10.2412C8.73242 10.5049 8.5918 10.7832 8.47461 11.0762C8.35742 11.3574 8.26367 11.6709 8.19336 12.0166C8.12305 12.3623 8.07617 12.7754 8.05273 13.2559C8.0293 13.748 8.01465 14.1875 8.00879 14.5742C8.00293 14.9609 8 15.7637 8 16.9824C8 18.2012 8.00293 19.0039 8.00879 19.3906C8.01465 19.7773 8.0293 20.2109 8.05273 20.6914C8.07617 21.1719 8.12305 21.585 8.19336 21.9307C8.26367 22.2764 8.35742 22.5957 8.47461 22.8887C8.5918 23.1816 8.73242 23.457 8.89648 23.7148C9.06055 23.9727 9.26562 24.2305 9.51172 24.4883C9.76953 24.7344 10.0273 24.9395 10.2852 25.1035C10.543 25.2676 10.8184 25.4082 11.1113 25.5254C11.3926 25.6309 11.709 25.7217 12.0605 25.7979C12.4121 25.874 12.8223 25.9238 13.291 25.9473C13.7715 25.9707 14.2051 25.9854 14.5918 25.9912C14.9785 25.9971 15.7871 26 17.0176 26C18.2363 26 19.0391 25.9971 19.4258 25.9912C19.8125 25.9854 20.2461 25.9707 20.7266 25.9473C21.207 25.9238 21.6201 25.874 21.9658 25.7979C22.3115 25.7217 22.6309 25.6309 22.9238 25.5254C23.2168 25.4082 23.4922 25.2676 23.75 25.1035C24.0078 24.9395 24.2598 24.7344 24.5059 24.4883C24.7637 24.2305 24.9746 23.9727 25.1387 23.7148C25.3027 23.457 25.4434 23.1816 25.5605 22.8887C25.666 22.6074 25.7568 22.291 25.833 21.9395C25.9092 21.5879 25.9531 21.1777 25.9648 20.709C25.9883 20.2285 26.0029 19.7949 26.0088 19.4082C26.0146 19.0215 26.0176 18.2129 26.0176 16.9824C26.0176 15.7637 26.0146 14.9609 26.0088 14.5742C26.0029 14.1875 25.9883 13.7539 25.9648 13.2734C25.9531 12.793 25.9092 12.3799 25.833 12.0342C25.7568 11.6885 25.666 11.3691 25.5605 11.0762C25.4434 10.7832 25.3027 10.5049 25.1387 10.2412C24.9746 9.97754 24.7695 9.72266 24.5234 9.47656C24.2656 9.23047 24.0078 9.02539 23.75 8.86133C23.4922 8.69727 23.2168 8.55664 22.9238 8.43945C22.6426 8.33398 22.3262 8.24316 21.9746 8.16699C21.623 8.09082 21.2129 8.04102 20.7441 8.01758C20.252 7.99414 19.8125 7.97949 19.4258 7.97363C19.0391 7.96777 18.2363 7.96484 17.0176 7.96484ZM17.0176 12.3418C16.373 12.3418 15.7695 12.4648 15.207 12.7109C14.6445 12.957 14.1553 13.2881 13.7393 13.7041C13.3232 14.1201 12.9922 14.6094 12.7461 15.1719C12.5 15.7344 12.377 16.3379 12.377 16.9824C12.377 17.627 12.5 18.2305 12.7461 18.793C12.9922 19.3555 13.3232 19.8447 13.7393 20.2607C14.1553 20.6768 14.6445 21.0078 15.207 21.2539C15.7695 21.4883 16.373 21.6055 17.0176 21.6055C17.6621 21.6055 18.2656 21.4883 18.8281 21.2539C19.3906 21.0078 19.8799 20.6768 20.2959 20.2607C20.7119 19.8447 21.043 19.3555 21.2891 18.793C21.5352 18.2305 21.6582 17.627 21.6582 16.9824C21.6582 16.3379 21.5352 15.7344 21.2891 15.1719C21.043 14.6094 20.7119 14.1201 20.2959 13.7041C19.8799 13.2881 19.3906 12.957 18.8281 12.7109C18.2656 12.4648 17.6621 12.3418 17.0176 12.3418ZM17.0176 19.9883C16.1855 19.9883 15.4766 19.6953 14.8906 19.1094C14.3047 18.5234 14.0117 17.8145 14.0117 16.9824C14.0117 16.1504 14.3047 15.4414 14.8906 14.8555C15.4766 14.2695 16.1855 13.9766 17.0176 13.9766C17.8496 13.9766 18.5586 14.2695 19.1445 14.8555C19.7305 15.4414 20.0234 16.1504 20.0234 16.9824C20.0234 17.8145 19.7305 18.5234 19.1445 19.1094C18.5586 19.6953 17.8496 19.9883 17.0176 19.9883ZM22.9062 12.166C22.9062 12.4707 22.8008 12.7285 22.5898 12.9395C22.3789 13.1504 22.127 13.2559 21.834 13.2559C21.5293 13.2559 21.2715 13.1504 21.0605 12.9395C20.8496 12.7285 20.7441 12.4707 20.7441 12.166C20.7441 11.873 20.8496 11.6211 21.0605 11.4102C21.2715 11.1992 21.5293 11.0938 21.834 11.0938C22.127 11.0938 22.3789 11.1992 22.5898 11.4102C22.8008 11.6211 22.9062 11.873 22.9062 12.166Z" fill="white"/>
</g>
<defs>
<clipPath id="clip0_119_1258">
<rect width="18" height="18" fill="white" transform="matrix(1 0 0 -1 8 26)"/>
</clipPath>
</defs>
</svg>
