<svg width="34" height="34" viewBox="0 0 34 34" fill="none" xmlns="http://www.w3.org/2000/svg">
<rect width="34" height="34" rx="17" fill="#0088CC"/>
<g clip-path="url(#clip0_119_1252)">
<path d="M24.7345 9.08947L8.70323 15.3649C8.70323 15.3649 8.57726 15.4264 8.3253 15.5494C8.07335 15.6725 7.96495 15.8571 8.00011 16.1031C8.03527 16.3492 8.15538 16.5279 8.36046 16.6393C8.56554 16.7506 8.66808 16.8063 8.66808 16.8063L12.6583 18.1422C12.7286 18.4 12.84 18.7692 12.9923 19.2496C13.1329 19.7418 13.2765 20.2428 13.423 20.7526C13.5694 21.2623 13.7071 21.7399 13.836 22.1852C13.965 22.6188 14.0528 22.9176 14.0997 23.0817C14.2052 23.4332 14.2931 23.6617 14.3634 23.7672C14.4337 23.8727 14.4982 23.9371 14.5568 23.9606C14.5685 23.9606 14.5831 23.9606 14.6007 23.9606C14.6183 23.9606 14.6271 23.9606 14.6271 23.9606C14.7677 23.9723 14.8849 23.9518 14.9786 23.899C15.0724 23.8463 15.1193 23.8199 15.1193 23.8199L17.6505 21.3063L21.6759 24.3824C22.215 24.6051 22.6017 24.5729 22.836 24.2858C23.0704 23.9987 23.1876 23.8551 23.1876 23.8551L26.0353 9.47619C26.0353 9.00744 25.8185 8.8258 25.3849 8.93127C24.9513 9.03674 24.7345 9.08947 24.7345 9.08947ZM22.7306 12.359C22.6603 12.4293 22.256 12.7985 21.5177 13.4664C20.7794 14.1461 19.962 14.8932 19.0655 15.7076C18.1691 16.5221 17.3282 17.2926 16.5431 18.0192C15.7579 18.7457 15.2833 19.1852 15.1193 19.3375L14.7325 22.6598C14.7091 22.8121 14.6446 22.8912 14.5392 22.8971C14.4337 22.9029 14.3458 22.8473 14.2755 22.7301C14.2052 22.4957 14.1114 22.1852 13.9943 21.7985C13.8888 21.4117 13.7745 21.0045 13.6515 20.5768C13.5284 20.149 13.4025 19.7242 13.2735 19.3024C13.1564 18.8922 13.0568 18.5524 12.9747 18.2828L22.4142 12.0074C22.4142 12.0074 22.5021 11.9635 22.6778 11.8756C22.8536 11.7877 22.9415 11.8317 22.9415 12.0074C22.9415 12.0074 22.9327 12.0397 22.9151 12.1041C22.8976 12.1686 22.836 12.2535 22.7306 12.359Z" fill="white"/>
</g>
<defs>
<clipPath id="clip0_119_1252">
<rect width="18" height="18" fill="white" transform="matrix(1 0 0 -1 8 26)"/>
</clipPath>
</defs>
</svg>
