<svg width="34" height="34" viewBox="0 0 34 34" fill="none" xmlns="http://www.w3.org/2000/svg">
<rect width="34" height="34" rx="17" fill="#7B519D"/>
<g clip-path="url(#clip0_119_1261)">
<path d="M18.1777 12.4648C18.0723 12.4531 17.9756 12.4854 17.8877 12.5615C17.7998 12.6377 17.7559 12.7402 17.7559 12.8691C17.7441 12.9746 17.7764 13.0713 17.8525 13.1592C17.9287 13.2471 18.0254 13.3027 18.1426 13.3262C18.8457 13.3613 19.3701 13.5605 19.7158 13.9238C20.0615 14.2871 20.252 14.8379 20.2871 15.5762C20.3105 15.6816 20.3633 15.7725 20.4453 15.8486C20.5273 15.9248 20.627 15.9629 20.7441 15.9629C20.873 15.9629 20.9756 15.9189 21.0518 15.8311C21.1279 15.7432 21.166 15.6465 21.166 15.541C21.1191 14.5684 20.8438 13.8271 20.3398 13.3174C19.8359 12.8076 19.1152 12.5234 18.1777 12.4648ZM22.9414 16.7012C23.0469 16.7012 23.1436 16.6631 23.2314 16.5869C23.3193 16.5107 23.3633 16.4199 23.3633 16.3145C23.375 15.4707 23.2578 14.6973 23.0117 13.9941C22.7656 13.291 22.3789 12.6523 21.8516 12.0781C21.3359 11.5156 20.7178 11.0762 19.9971 10.7598C19.2764 10.4434 18.459 10.2383 17.5449 10.1445C17.4277 10.1445 17.3281 10.1855 17.2461 10.2676C17.1641 10.3496 17.1113 10.4492 17.0879 10.5664C17.0879 10.6719 17.126 10.7715 17.2021 10.8652C17.2783 10.959 17.3691 11.0117 17.4746 11.0234C18.3066 11.082 19.0273 11.2432 19.6367 11.5068C20.2461 11.7705 20.7676 12.1484 21.2012 12.6406C21.6699 13.1211 22.0098 13.6631 22.2207 14.2666C22.4316 14.8701 22.5312 15.541 22.5195 16.2793C22.5195 16.3848 22.5576 16.4814 22.6338 16.5693C22.71 16.6572 22.8125 16.7012 22.9414 16.7012ZM23.0469 10.4258C22.625 10.0273 22.1797 9.66992 21.7109 9.35352C21.2422 9.04883 20.7471 8.79102 20.2256 8.58008C19.7041 8.36914 19.1562 8.21094 18.582 8.10547C17.9961 8 17.3926 7.94141 16.7715 7.92969C16.6426 7.92969 16.54 7.97363 16.4639 8.06152C16.3877 8.14941 16.3496 8.24609 16.3496 8.35156C16.3496 8.48047 16.3877 8.58887 16.4639 8.67676C16.54 8.76465 16.6426 8.80859 16.7715 8.80859C17.334 8.80859 17.8789 8.85547 18.4062 8.94922C18.9219 9.04297 19.4199 9.18652 19.9004 9.37988C20.3809 9.57324 20.8379 9.81055 21.2715 10.0918C21.6934 10.373 22.0977 10.6953 22.4844 11.0586C22.8594 11.4336 23.1875 11.8379 23.4688 12.2715C23.7617 12.7051 24.002 13.1768 24.1895 13.6865C24.377 14.1963 24.5234 14.7441 24.6289 15.3301C24.7227 15.916 24.7695 16.5371 24.7695 17.1934C24.7695 17.2988 24.8135 17.3955 24.9014 17.4834C24.9893 17.5713 25.0977 17.6152 25.2266 17.6152C25.332 17.6152 25.4287 17.5713 25.5166 17.4834C25.6045 17.3955 25.6484 17.2988 25.6484 17.1934C25.625 16.4785 25.5605 15.7988 25.4551 15.1543C25.3379 14.5215 25.1709 13.9209 24.9541 13.3525C24.7373 12.7842 24.4707 12.2539 24.1543 11.7617C23.8379 11.2812 23.4688 10.8359 23.0469 10.4258ZM24.6289 22.0625C24.6289 22.0625 24.4443 21.9102 24.0752 21.6055C23.7061 21.3008 23.3984 21.0605 23.1523 20.8848C22.918 20.709 22.6484 20.5273 22.3438 20.3398C22.0391 20.1523 21.793 19.9941 21.6055 19.8652C21.2305 19.6777 20.876 19.625 20.542 19.707C20.208 19.7891 19.9707 19.9355 19.8301 20.1465L19.1973 20.9199C19.0215 21.1191 18.8193 21.2275 18.5908 21.2451C18.3623 21.2627 18.248 21.2715 18.248 21.2715C17.1465 20.9902 16.2383 20.5449 15.5234 19.9355C14.8086 19.3145 14.2402 18.6875 13.8184 18.0547C13.3965 17.4219 13.1035 16.8711 12.9395 16.4023C12.7754 15.9219 12.6934 15.6816 12.6934 15.6816C12.6934 15.6816 12.6963 15.5674 12.7021 15.3389C12.708 15.1104 12.8105 14.9199 13.0098 14.7676L13.8184 14.1348C14.0059 13.9707 14.1406 13.7246 14.2227 13.3965C14.3047 13.0684 14.252 12.7227 14.0645 12.3594C13.959 12.1719 13.8066 11.9199 13.6074 11.6035C13.4082 11.2871 13.2324 11.0117 13.0801 10.7773C12.8809 10.5547 12.6289 10.2588 12.3242 9.88965C12.0195 9.52051 11.8672 9.33594 11.8672 9.33594C11.6797 9.11328 11.4482 8.97852 11.1729 8.93164C10.8975 8.88477 10.6016 8.9375 10.2852 9.08984C9.99219 9.25391 9.71094 9.44141 9.44141 9.65234C9.17188 9.86328 8.91406 10.1094 8.66797 10.3906C8.66797 10.3906 8.66797 10.3936 8.66797 10.3994C8.66797 10.4053 8.66797 10.4141 8.66797 10.4258C8.48047 10.6367 8.33105 10.8564 8.21973 11.085C8.1084 11.3135 8.03516 11.5391 8 11.7617C8 11.7852 8 11.8115 8 11.8408C8 11.8701 8 11.9023 8 11.9375C8 12.043 8.00293 12.1426 8.00879 12.2363C8.01465 12.3301 8.03516 12.4297 8.07031 12.5352H8.10547C8.19922 12.875 8.37793 13.3408 8.6416 13.9326C8.90527 14.5244 9.28906 15.2949 9.79297 16.2441C10.1328 16.8418 10.4697 17.3955 10.8037 17.9053C11.1377 18.415 11.4805 18.8809 11.832 19.3027C12.0078 19.5371 12.1982 19.7686 12.4033 19.9971C12.6084 20.2256 12.834 20.4512 13.0801 20.6738C13.0801 20.6973 13.0859 20.7148 13.0977 20.7266C13.1094 20.7383 13.1152 20.7441 13.1152 20.7441C13.127 20.7676 13.1357 20.7822 13.1416 20.7881C13.1475 20.7939 13.1621 20.8027 13.1855 20.8145C13.1855 20.8145 13.1914 20.8203 13.2031 20.832C13.2148 20.8438 13.2207 20.8496 13.2207 20.8496C13.2324 20.873 13.2412 20.8877 13.2471 20.8936C13.2529 20.8994 13.2676 20.9082 13.291 20.9199C13.5137 21.1543 13.7393 21.3711 13.9678 21.5703C14.1963 21.7695 14.4277 21.957 14.6621 22.1328C15.084 22.4844 15.5527 22.8271 16.0684 23.1611C16.584 23.4951 17.1465 23.832 17.7559 24.1719C18.6934 24.6992 19.4551 25.0889 20.041 25.3408C20.627 25.5928 21.0898 25.7656 21.4297 25.8594L21.4648 25.8945C21.5469 25.9062 21.6348 25.9268 21.7285 25.9561C21.8223 25.9854 21.9219 26 22.0273 26C22.0625 26 22.0977 25.9971 22.1328 25.9912C22.168 25.9854 22.2031 25.9766 22.2383 25.9648C22.4492 25.9297 22.666 25.8594 22.8887 25.7539C23.1113 25.6484 23.3281 25.5078 23.5391 25.332C23.5391 25.332 23.5391 25.3291 23.5391 25.3232C23.5391 25.3174 23.5508 25.3086 23.5742 25.2969C23.8555 25.0508 24.1016 24.79 24.3125 24.5146C24.5234 24.2393 24.7109 23.9609 24.875 23.6797C24.875 23.6797 24.875 23.6768 24.875 23.6709C24.875 23.665 24.875 23.6562 24.875 23.6445C25.0273 23.3398 25.0801 23.0527 25.0332 22.7832C24.9863 22.5137 24.8516 22.2734 24.6289 22.0625Z" fill="white"/>
</g>
<defs>
<clipPath id="clip0_119_1261">
<rect width="18" height="18" fill="white" transform="matrix(1 0 0 -1 8 26)"/>
</clipPath>
</defs>
</svg>
