<svg width="34" height="34" viewBox="0 0 34 34" fill="none" xmlns="http://www.w3.org/2000/svg">
<rect width="34" height="34" rx="17" fill="#20B038"/>
<g clip-path="url(#clip0_119_1255)">
<path d="M23.3633 10.5664C22.9414 10.1445 22.4844 9.77539 21.9922 9.45898C21.5 9.13086 20.9873 8.85547 20.4541 8.63281C19.9209 8.41016 19.3613 8.24609 18.7754 8.14062C18.2012 8.02344 17.6152 7.96484 17.0176 7.96484C15.7871 7.96484 14.627 8.19922 13.5371 8.66797C12.4473 9.13672 11.498 9.77539 10.6895 10.584C9.88086 11.3926 9.24219 12.3418 8.77344 13.4316C8.30469 14.5215 8.07031 15.6816 8.07031 16.9121C8.07031 17.6855 8.17285 18.4531 8.37793 19.2148C8.58301 19.9766 8.87891 20.6973 9.26562 21.377L8 26L12.7637 24.7695C13.4082 25.1211 14.0879 25.3906 14.8027 25.5781C15.5176 25.7656 16.2559 25.8594 17.0176 25.8594C18.248 25.8594 19.4082 25.625 20.498 25.1562C21.5879 24.6875 22.5371 24.0488 23.3457 23.2402C24.1543 22.4316 24.793 21.4824 25.2617 20.3926C25.7305 19.3027 25.9648 18.1426 25.9648 16.9121C25.9648 16.3145 25.9062 15.7285 25.7891 15.1543C25.6836 14.5684 25.5195 14.0088 25.2969 13.4756C25.0742 12.9424 24.7988 12.4297 24.4707 11.9375C24.1543 11.4453 23.7852 10.9883 23.3633 10.5664ZM17.0176 24.3477C16.3496 24.3477 15.6963 24.2598 15.0576 24.084C14.4189 23.9082 13.8184 23.6445 13.2559 23.293L12.9746 23.1523L10.1445 23.8906L10.8828 21.1309L10.707 20.8496C10.3438 20.252 10.0654 19.6221 9.87207 18.96C9.67871 18.2979 9.58203 17.6152 9.58203 16.9121C9.58203 15.8809 9.78125 14.9141 10.1797 14.0117C10.5664 13.1094 11.0967 12.3213 11.7705 11.6475C12.4443 10.9736 13.2324 10.4434 14.1348 10.0566C15.0371 9.66992 15.998 9.47656 17.0176 9.47656C17.5098 9.47656 17.9961 9.52344 18.4766 9.61719C18.9453 9.71094 19.4023 9.85156 19.8477 10.0391C20.293 10.2266 20.7207 10.4551 21.1309 10.7246C21.541 10.9941 21.9219 11.3047 22.2734 11.6562C22.625 12.0078 22.9355 12.3887 23.2051 12.7988C23.4746 13.209 23.7031 13.6367 23.8906 14.082C24.0781 14.5273 24.2188 14.9844 24.3125 15.4531C24.4062 15.9336 24.4531 16.4199 24.4531 16.9121C24.4531 17.9316 24.2539 18.8926 23.8555 19.7949C23.4688 20.6973 22.9385 21.4854 22.2646 22.1592C21.5908 22.833 20.8027 23.3633 19.9004 23.75C18.998 24.1484 18.0371 24.3477 17.0176 24.3477ZM21.0957 18.7754C20.9785 18.7285 20.7178 18.6025 20.3135 18.3975C19.9092 18.1924 19.6543 18.0723 19.5488 18.0371C19.4668 18.002 19.3818 17.9844 19.2939 17.9844C19.2061 17.9844 19.127 18.0371 19.0566 18.1426C18.9863 18.2715 18.8691 18.4326 18.7051 18.626C18.541 18.8193 18.4238 18.9512 18.3535 19.0215C18.2832 19.0918 18.2158 19.1357 18.1514 19.1533C18.0869 19.1709 17.9902 19.1504 17.8613 19.0918C17.7559 19.0449 17.5391 18.9424 17.2109 18.7842C16.8828 18.626 16.502 18.3535 16.0684 17.9668C15.752 17.6855 15.4854 17.3867 15.2686 17.0703C15.0518 16.7539 14.9082 16.5371 14.8379 16.4199C14.7676 16.3145 14.7529 16.2295 14.7939 16.165C14.835 16.1006 14.8848 16.0332 14.9434 15.9629C14.9902 15.9277 15.04 15.8721 15.0928 15.7959C15.1455 15.7197 15.2012 15.6465 15.2598 15.5762C15.3301 15.5176 15.3799 15.4619 15.4092 15.4092C15.4385 15.3564 15.4707 15.2949 15.5059 15.2246C15.541 15.1543 15.5527 15.084 15.541 15.0137C15.5293 14.9434 15.5059 14.8848 15.4707 14.8379C15.4473 14.7793 15.3506 14.542 15.1807 14.126C15.0107 13.71 14.8848 13.3965 14.8027 13.1855C14.6973 12.9512 14.6006 12.8281 14.5127 12.8164C14.4248 12.8047 14.3457 12.7988 14.2754 12.7988C14.2168 12.7988 14.1494 12.7988 14.0732 12.7988C13.9971 12.7988 13.9238 12.7988 13.8535 12.7988C13.7832 12.7988 13.6924 12.8135 13.5811 12.8428C13.4697 12.8721 13.3613 12.9395 13.2559 13.0449C13.1504 13.1621 12.9951 13.3643 12.79 13.6514C12.585 13.9385 12.4824 14.3574 12.4824 14.9082C12.4824 15.4707 12.6201 15.9805 12.8955 16.4375C13.1709 16.8945 13.3379 17.1582 13.3965 17.2285C13.4199 17.2637 13.5254 17.416 13.7129 17.6855C13.9121 17.9434 14.1758 18.248 14.5039 18.5996C14.832 18.9512 15.2246 19.3145 15.6816 19.6895C16.1387 20.0527 16.6426 20.3574 17.1934 20.6035C17.4629 20.709 17.7031 20.7998 17.9141 20.876C18.125 20.9521 18.3066 21.0137 18.459 21.0605C18.7402 21.1543 18.998 21.2012 19.2324 21.2012C19.4668 21.2012 19.6777 21.1895 19.8652 21.166C20.0996 21.1309 20.3896 21.0078 20.7354 20.7969C21.0811 20.5859 21.2949 20.3457 21.377 20.0762C21.4941 19.8301 21.5586 19.6074 21.5703 19.4082C21.582 19.209 21.5703 19.0801 21.5352 19.0215C21.5 18.9863 21.4443 18.9512 21.3682 18.916C21.292 18.8809 21.2012 18.834 21.0957 18.7754Z" fill="white"/>
</g>
<defs>
<clipPath id="clip0_119_1255">
<rect width="18" height="18" fill="white" transform="matrix(1 0 0 -1 8 26)"/>
</clipPath>
</defs>
</svg>
