<svg width="24" height="24" viewBox="0 0 24 24" fill="none" xmlns="http://www.w3.org/2000/svg">
<path d="M5.29321 6.00011C3.83784 7.62556 3.02301 9.72468 3.00056 11.9064C2.94524 16.8915 7.0154 20.9907 12.0006 21.0001C16.9787 21.0095 21.0006 16.9768 21.0006 12.0001C21.0006 7.09979 17.0842 3.11214 12.2115 3.00011C12.1841 2.99922 12.1567 3.00387 12.1312 3.01378C12.1056 3.02368 12.0822 3.03864 12.0625 3.05776C12.0429 3.07687 12.0272 3.09976 12.0166 3.12505C12.0059 3.15034 12.0005 3.17751 12.0006 3.20495V7.12511" stroke="#FFAC4B" stroke-linecap="round" stroke-linejoin="round"/>
<path d="M10.9397 13.0611L7.23658 7.76427C7.18534 7.69088 7.16158 7.6018 7.16944 7.51265C7.17731 7.42349 7.2163 7.33995 7.27959 7.27666C7.34288 7.21337 7.42642 7.17438 7.51558 7.16651C7.60473 7.15865 7.69381 7.18241 7.7672 7.23365L13.0641 10.9368C13.389 11.1708 13.6087 11.5233 13.6757 11.918C13.7427 12.3127 13.6516 12.718 13.4221 13.0461C13.1927 13.3742 12.8433 13.5988 12.4495 13.6712C12.0557 13.7437 11.6492 13.6582 11.318 13.4333C11.1715 13.3318 11.0436 13.2059 10.9397 13.0611Z" fill="#FFAC4B"/>
</svg>
