<svg width="24" height="24" viewBox="0 0 24 24" fill="none" xmlns="http://www.w3.org/2000/svg">
<g clip-path="url(#clip0_76_3953)">
<circle cx="12" cy="12" r="12" fill="#E4405F"/>
<g clip-path="url(#clip1_76_3953)">
<path d="M12.0137 6.01172C12.9525 6.01172 13.5677 6.01628 13.8594 6.02539C14.151 6.0345 14.4792 6.04362 14.8438 6.05273C15.1901 6.07096 15.4635 6.10514 15.6641 6.15527C15.8646 6.2054 16.0241 6.25325 16.1426 6.29883C16.3066 6.36263 16.4525 6.43555 16.5801 6.51758C16.7077 6.59961 16.8307 6.69987 16.9492 6.81836C17.0768 6.94596 17.1816 7.07129 17.2637 7.19434C17.3457 7.31738 17.4186 7.46094 17.4824 7.625C17.528 7.7526 17.5758 7.91667 17.626 8.11719C17.6761 8.31771 17.7057 8.58659 17.7148 8.92383C17.7331 9.29753 17.7445 9.63021 17.749 9.92188C17.7536 10.2135 17.7559 10.8288 17.7559 11.7676C17.7559 12.6973 17.7536 13.3079 17.749 13.5996C17.7445 13.8913 17.7331 14.224 17.7148 14.5977C17.7057 14.9349 17.6761 15.2038 17.626 15.4043C17.5758 15.6048 17.528 15.7689 17.4824 15.8965C17.4186 16.0605 17.3457 16.2064 17.2637 16.334C17.1816 16.4616 17.0814 16.5846 16.9629 16.7031C16.8353 16.8216 16.7077 16.9219 16.5801 17.0039C16.4525 17.0859 16.3112 17.1589 16.1562 17.2227C16.0286 17.2773 15.8646 17.3275 15.6641 17.373C15.4635 17.4186 15.1901 17.4505 14.8438 17.4688C14.4792 17.487 14.151 17.4984 13.8594 17.5029C13.5677 17.5075 12.9525 17.5098 12.0137 17.5098C11.084 17.5098 10.471 17.5075 10.1748 17.5029C9.87858 17.4984 9.54818 17.487 9.18359 17.4688C8.83724 17.4505 8.5638 17.4186 8.36328 17.373C8.16276 17.3275 8.00326 17.2773 7.88477 17.2227C7.7207 17.1589 7.57487 17.0859 7.44727 17.0039C7.31966 16.9219 7.19661 16.8216 7.07812 16.7031C6.95052 16.5846 6.8457 16.4616 6.76367 16.334C6.68164 16.2064 6.60872 16.0605 6.54492 15.8965C6.49935 15.778 6.4515 15.6162 6.40137 15.4111C6.35124 15.2061 6.32161 14.9349 6.3125 14.5977C6.29427 14.224 6.28288 13.8913 6.27832 13.5996C6.27376 13.3079 6.27148 12.6973 6.27148 11.7676C6.27148 10.8288 6.27376 10.2135 6.27832 9.92188C6.28288 9.63021 6.29427 9.30208 6.3125 8.9375C6.32161 8.59115 6.35124 8.31771 6.40137 8.11719C6.4515 7.91667 6.49935 7.7526 6.54492 7.625C6.60872 7.47005 6.68164 7.32878 6.76367 7.20117C6.8457 7.07357 6.95052 6.94596 7.07812 6.81836C7.19661 6.69987 7.31966 6.59961 7.44727 6.51758C7.57487 6.43555 7.7207 6.36263 7.88477 6.29883C8.00326 6.25325 8.16276 6.2054 8.36328 6.15527C8.5638 6.10514 8.83724 6.07096 9.18359 6.05273C9.54818 6.04362 9.8763 6.0345 10.168 6.02539C10.4596 6.01628 11.0749 6.01172 12.0137 6.01172ZM12.0137 4.75391C11.0658 4.75391 10.4414 4.75618 10.1406 4.76074C9.83984 4.7653 9.5026 4.77669 9.12891 4.79492C8.75521 4.81315 8.43164 4.84961 8.1582 4.9043C7.88477 4.95898 7.63867 5.0319 7.41992 5.12305C7.19206 5.21419 6.97786 5.32357 6.77734 5.45117C6.57682 5.57878 6.3763 5.73828 6.17578 5.92969C5.98438 6.12109 5.82487 6.31934 5.69727 6.52441C5.56966 6.72949 5.46029 6.94596 5.36914 7.17383C5.27799 7.39258 5.20508 7.63639 5.15039 7.90527C5.0957 8.17415 5.05924 8.49544 5.04102 8.86914C5.02279 9.25195 5.01139 9.59375 5.00684 9.89453C5.00228 10.1953 5 10.8197 5 11.7676C5 12.7155 5.00228 13.3398 5.00684 13.6406C5.01139 13.9414 5.02279 14.2786 5.04102 14.6523C5.05924 15.026 5.0957 15.3473 5.15039 15.6162C5.20508 15.8851 5.27799 16.1335 5.36914 16.3613C5.46029 16.5892 5.56966 16.8034 5.69727 17.0039C5.82487 17.2044 5.98438 17.4049 6.17578 17.6055C6.3763 17.7969 6.57682 17.9564 6.77734 18.084C6.97786 18.2116 7.19206 18.321 7.41992 18.4121C7.63867 18.4941 7.88477 18.5648 8.1582 18.624C8.43164 18.6833 8.75065 18.722 9.11523 18.7402C9.48893 18.7585 9.82617 18.7699 10.127 18.7744C10.4277 18.779 11.0566 18.7812 12.0137 18.7812C12.9616 18.7812 13.5859 18.779 13.8867 18.7744C14.1875 18.7699 14.5247 18.7585 14.8984 18.7402C15.2721 18.722 15.5934 18.6833 15.8623 18.624C16.1312 18.5648 16.3796 18.4941 16.6074 18.4121C16.8353 18.321 17.0495 18.2116 17.25 18.084C17.4505 17.9564 17.6465 17.7969 17.8379 17.6055C18.0384 17.4049 18.2025 17.2044 18.3301 17.0039C18.4577 16.8034 18.5671 16.5892 18.6582 16.3613C18.7402 16.1426 18.8109 15.8965 18.8701 15.623C18.9294 15.3496 18.9635 15.0306 18.9727 14.666C18.9909 14.2923 19.0023 13.9551 19.0068 13.6543C19.0114 13.3535 19.0137 12.7246 19.0137 11.7676C19.0137 10.8197 19.0114 10.1953 19.0068 9.89453C19.0023 9.59375 18.9909 9.25651 18.9727 8.88281C18.9635 8.50911 18.9294 8.18783 18.8701 7.91895C18.8109 7.65007 18.7402 7.40169 18.6582 7.17383C18.5671 6.94596 18.4577 6.72949 18.3301 6.52441C18.2025 6.31934 18.043 6.12109 17.8516 5.92969C17.651 5.73828 17.4505 5.57878 17.25 5.45117C17.0495 5.32357 16.8353 5.21419 16.6074 5.12305C16.3887 5.04102 16.1426 4.97038 15.8691 4.91113C15.5957 4.85189 15.2767 4.81315 14.9121 4.79492C14.5293 4.77669 14.1875 4.7653 13.8867 4.76074C13.5859 4.75618 12.9616 4.75391 12.0137 4.75391ZM12.0137 8.1582C11.5124 8.1582 11.043 8.25391 10.6055 8.44531C10.168 8.63672 9.78744 8.89421 9.46387 9.21777C9.1403 9.54134 8.88281 9.92188 8.69141 10.3594C8.5 10.7969 8.4043 11.2663 8.4043 11.7676C8.4043 12.2689 8.5 12.7383 8.69141 13.1758C8.88281 13.6133 9.1403 13.9938 9.46387 14.3174C9.78744 14.641 10.168 14.8984 10.6055 15.0898C11.043 15.2721 11.5124 15.3633 12.0137 15.3633C12.515 15.3633 12.9844 15.2721 13.4219 15.0898C13.8594 14.8984 14.2399 14.641 14.5635 14.3174C14.887 13.9938 15.1445 13.6133 15.3359 13.1758C15.5273 12.7383 15.623 12.2689 15.623 11.7676C15.623 11.2663 15.5273 10.7969 15.3359 10.3594C15.1445 9.92188 14.887 9.54134 14.5635 9.21777C14.2399 8.89421 13.8594 8.63672 13.4219 8.44531C12.9844 8.25391 12.515 8.1582 12.0137 8.1582ZM12.0137 14.1055C11.3665 14.1055 10.8151 13.8776 10.3594 13.4219C9.90365 12.9661 9.67578 12.4147 9.67578 11.7676C9.67578 11.1204 9.90365 10.569 10.3594 10.1133C10.8151 9.65755 11.3665 9.42969 12.0137 9.42969C12.6608 9.42969 13.2122 9.65755 13.668 10.1133C14.1237 10.569 14.3516 11.1204 14.3516 11.7676C14.3516 12.4147 14.1237 12.9661 13.668 13.4219C13.2122 13.8776 12.6608 14.1055 12.0137 14.1055ZM16.5938 8.02148C16.5938 8.25846 16.5117 8.45898 16.3477 8.62305C16.1836 8.78711 15.9876 8.86914 15.7598 8.86914C15.5228 8.86914 15.3223 8.78711 15.1582 8.62305C14.9941 8.45898 14.9121 8.25846 14.9121 8.02148C14.9121 7.79362 14.9941 7.59766 15.1582 7.43359C15.3223 7.26953 15.5228 7.1875 15.7598 7.1875C15.9876 7.1875 16.1836 7.26953 16.3477 7.43359C16.5117 7.59766 16.5938 7.79362 16.5938 8.02148Z" fill="white"/>
</g>
</g>
<defs>
<clipPath id="clip0_76_3953">
<rect width="24" height="24" fill="white" transform="matrix(1 0 0 -1 0 24)"/>
</clipPath>
<clipPath id="clip1_76_3953">
<rect width="14" height="14" fill="white" transform="matrix(1 0 0 -1 5 19)"/>
</clipPath>
</defs>
</svg>
