<svg width="24" height="24" viewBox="0 0 24 24" fill="none" xmlns="http://www.w3.org/2000/svg">
<g clip-path="url(#clip0_76_3927)">
<circle cx="12" cy="12" r="12" fill="#6EC1E4"/>
<path d="M16.9906 6.14531L4.55062 11.0149C4.55062 11.0149 4.45287 11.0627 4.25736 11.1581C4.06185 11.2536 3.97773 11.3968 4.00501 11.5878C4.03229 11.7788 4.1255 11.9175 4.28464 12.0038C4.44378 12.0902 4.52334 12.1334 4.52334 12.1334L7.6197 13.1701C7.67426 13.3701 7.76065 13.6566 7.87887 14.0294C7.98799 14.4114 8.09939 14.8001 8.21306 15.1957C8.32673 15.5913 8.43357 15.9618 8.5336 16.3074C8.63363 16.6438 8.70183 16.8757 8.73821 17.003C8.82005 17.2758 8.88825 17.4532 8.94281 17.535C8.99738 17.6168 9.04739 17.6669 9.09286 17.685C9.10195 17.685 9.11332 17.685 9.12696 17.685C9.1406 17.685 9.14742 17.685 9.14742 17.685C9.25654 17.6941 9.34748 17.6782 9.42023 17.6373C9.49297 17.5964 9.52935 17.5759 9.52935 17.5759L11.4936 15.6254L14.6172 18.0124C15.0355 18.1852 15.3356 18.1602 15.5175 17.9374C15.6993 17.7146 15.7903 17.6032 15.7903 17.6032L18 6.4454C18 6.08166 17.8318 5.94071 17.4953 6.02255C17.1588 6.10439 16.9906 6.14531 16.9906 6.14531ZM15.4356 8.68242C15.3811 8.73698 15.0673 9.02343 14.4944 9.54176C13.9215 10.0692 13.2873 10.6489 12.5916 11.2809C11.8959 11.9129 11.2435 12.5108 10.6342 13.0746C10.0249 13.6384 9.65666 13.9794 9.52935 14.0976L9.22926 16.6757C9.21107 16.7939 9.16106 16.8553 9.07922 16.8598C8.99738 16.8643 8.92917 16.8212 8.87461 16.7302C8.82005 16.5483 8.7473 16.3074 8.65637 16.0073C8.57452 15.7072 8.48586 15.3912 8.39038 15.0593C8.2949 14.7274 8.19714 14.3977 8.09711 14.0704C8.00618 13.7521 7.92888 13.4884 7.86523 13.2792L15.1901 8.40961C15.1901 8.40961 15.2583 8.37551 15.3947 8.30731C15.5311 8.23911 15.5993 8.27321 15.5993 8.40961C15.5993 8.40961 15.5925 8.43462 15.5788 8.48463C15.5652 8.53465 15.5175 8.60058 15.4356 8.68242Z" fill="white"/>
</g>
<defs>
<clipPath id="clip0_76_3927">
<rect width="24" height="24" fill="white" transform="matrix(1 0 0 -1 0 24)"/>
</clipPath>
</defs>
</svg>
