<svg width="24" height="24" viewBox="0 0 24 24" fill="none" xmlns="http://www.w3.org/2000/svg">
<g clip-path="url(#clip0_76_3921)">
<circle cx="12" cy="12" r="12" fill="#7B519D"/>
<path d="M13.0737 8.51362C12.99 8.50454 12.9133 8.52951 12.8436 8.58852C12.7739 8.64754 12.739 8.72698 12.739 8.82685C12.7297 8.90856 12.7553 8.98346 12.8157 9.05156C12.8762 9.11965 12.9529 9.16278 13.0458 9.18093C13.6036 9.20817 14.0196 9.36252 14.2938 9.64397C14.5681 9.92542 14.7191 10.3521 14.747 10.9241C14.7656 11.0058 14.8074 11.0762 14.8725 11.1352C14.9376 11.1942 15.0166 11.2237 15.1096 11.2237C15.2118 11.2237 15.2932 11.1897 15.3536 11.1216C15.414 11.0535 15.4442 10.9786 15.4442 10.8969C15.407 10.1433 15.1886 9.56907 14.7888 9.17412C14.3891 8.77918 13.8174 8.55901 13.0737 8.51362ZM16.8526 11.7957C16.9363 11.7957 17.0129 11.7662 17.0827 11.7072C17.1524 11.6482 17.1873 11.5778 17.1873 11.4961C17.1965 10.8424 17.1036 10.2432 16.9084 9.69844C16.7131 9.1537 16.4064 8.65889 15.988 8.21401C15.579 7.77821 15.0886 7.43774 14.5169 7.19261C13.9452 6.94747 13.2968 6.78859 12.5717 6.71595C12.4788 6.71595 12.3997 6.74773 12.3347 6.81128C12.2696 6.87484 12.2278 6.95201 12.2092 7.0428C12.2092 7.12451 12.2394 7.20169 12.2998 7.27432C12.3602 7.34695 12.4323 7.38781 12.5159 7.39689C13.176 7.44228 13.7477 7.56712 14.2311 7.7714C14.7145 7.97568 15.1282 8.26848 15.4721 8.64981C15.844 9.02205 16.1135 9.44196 16.2809 9.90953C16.4482 10.3771 16.5272 10.8969 16.5179 11.4689C16.5179 11.5506 16.5481 11.6255 16.6086 11.6936C16.669 11.7617 16.7503 11.7957 16.8526 11.7957ZM16.9363 6.93385C16.6016 6.62516 16.2483 6.34825 15.8765 6.10311C15.5046 5.86706 15.1119 5.66732 14.6982 5.50389C14.2845 5.34047 13.8499 5.2179 13.3944 5.13619C12.9296 5.05447 12.4509 5.00908 11.9582 5C11.8559 5 11.7746 5.03405 11.7141 5.10214C11.6537 5.17023 11.6235 5.24514 11.6235 5.32685C11.6235 5.42672 11.6537 5.5107 11.7141 5.57879C11.7746 5.64689 11.8559 5.68093 11.9582 5.68093C12.4044 5.68093 12.8367 5.71725 13.255 5.78988C13.664 5.86252 14.0591 5.97374 14.4402 6.12354C14.8214 6.27335 15.1839 6.4572 15.5279 6.6751C15.8625 6.893 16.1833 7.14267 16.49 7.42412C16.7875 7.71466 17.0478 8.02789 17.2709 8.36381C17.5033 8.69974 17.6939 9.06518 17.8426 9.46012C17.9914 9.85506 18.1076 10.2795 18.1912 10.7335C18.2656 11.1874 18.3028 11.6686 18.3028 12.177C18.3028 12.2588 18.3376 12.3337 18.4074 12.4018C18.4771 12.4698 18.5631 12.5039 18.6653 12.5039C18.749 12.5039 18.8257 12.4698 18.8954 12.4018C18.9651 12.3337 19 12.2588 19 12.177C18.9814 11.6232 18.9303 11.0966 18.8466 10.5973C18.7537 10.107 18.6212 9.6417 18.4492 9.20136C18.2772 8.76102 18.0657 8.35019 17.8147 7.96887C17.5637 7.59663 17.2709 7.25162 16.9363 6.93385ZM18.1912 15.9494C18.1912 15.9494 18.0448 15.8314 17.752 15.5953C17.4592 15.3593 17.2151 15.1732 17.0199 15.037C16.834 14.9008 16.6202 14.7601 16.3785 14.6148C16.1368 14.4695 15.9416 14.347 15.7928 14.2471C15.4954 14.1018 15.2141 14.061 14.9492 14.1245C14.6843 14.1881 14.496 14.3016 14.3845 14.465L13.8825 15.0642C13.743 15.2185 13.5827 15.3025 13.4014 15.3161C13.2201 15.3298 13.1295 15.3366 13.1295 15.3366C12.2556 15.1187 11.5352 14.7737 10.9681 14.3016C10.4011 13.8204 9.9502 13.3346 9.61554 12.8444C9.28088 12.3541 9.04847 11.9274 8.91833 11.5642C8.78818 11.192 8.72311 11.0058 8.72311 11.0058C8.72311 11.0058 8.72543 10.9173 8.73008 10.7403C8.73473 10.5632 8.81607 10.4157 8.9741 10.2977L9.61554 9.80739C9.76428 9.68029 9.87118 9.48962 9.93625 9.23541C10.0013 8.98119 9.9595 8.71336 9.81076 8.43191C9.72709 8.28664 9.60624 8.09144 9.44821 7.8463C9.29017 7.60117 9.15073 7.38781 9.02988 7.20623C8.87185 7.03372 8.67198 6.80447 8.43028 6.51848C8.18858 6.23249 8.06773 6.08949 8.06773 6.08949C7.91899 5.91699 7.73539 5.81258 7.51693 5.77627C7.29847 5.73995 7.06375 5.7808 6.81275 5.89883C6.58035 6.02594 6.35724 6.17121 6.14343 6.33463C5.92961 6.49805 5.7251 6.68872 5.52988 6.90662C5.52988 6.90662 5.52988 6.90889 5.52988 6.91342C5.52988 6.91796 5.52988 6.92477 5.52988 6.93385C5.38114 7.09728 5.26262 7.26751 5.1743 7.44455C5.08599 7.6216 5.02789 7.79637 5 7.96887C5 7.98703 5 8.00746 5 8.03016C5 8.05285 5 8.07782 5 8.10506C5 8.18677 5.00232 8.26394 5.00697 8.33658C5.01162 8.40921 5.02789 8.48638 5.05578 8.56809H5.08367C5.15803 8.83139 5.2998 9.19228 5.50896 9.65078C5.71813 10.1093 6.02258 10.7062 6.42231 11.4416C6.6919 11.9047 6.95916 12.3337 7.2241 12.7286C7.48904 13.1235 7.76096 13.4844 8.03984 13.8113C8.17928 13.9929 8.33035 14.1722 8.49303 14.3492C8.65571 14.5263 8.83466 14.701 9.02988 14.8735C9.02988 14.8917 9.03453 14.9053 9.04382 14.9144C9.05312 14.9235 9.05777 14.928 9.05777 14.928C9.06707 14.9462 9.07404 14.9575 9.07869 14.9621C9.08333 14.9666 9.09495 14.9734 9.11355 14.9825C9.11355 14.9825 9.11819 14.987 9.12749 14.9961C9.13679 15.0052 9.14143 15.0097 9.14143 15.0097C9.15073 15.0279 9.1577 15.0392 9.16235 15.0438C9.167 15.0483 9.17862 15.0551 9.19721 15.0642C9.37384 15.2458 9.55279 15.4137 9.73406 15.5681C9.91534 15.7224 10.0989 15.8677 10.2849 16.0039C10.6195 16.2763 10.9914 16.5418 11.4004 16.8006C11.8094 17.0593 12.2556 17.3204 12.739 17.5837C13.4827 17.9922 14.087 18.2941 14.5518 18.4893C15.0166 18.6845 15.3838 18.8184 15.6534 18.8911L15.6813 18.9183C15.7463 18.9274 15.8161 18.9433 15.8904 18.966C15.9648 18.9887 16.0438 19 16.1275 19C16.1554 19 16.1833 18.9977 16.2112 18.9932C16.239 18.9887 16.2669 18.9818 16.2948 18.9728C16.4622 18.9455 16.6341 18.8911 16.8108 18.8093C16.9874 18.7276 17.1594 18.6187 17.3267 18.4825C17.3267 18.4825 17.3267 18.4802 17.3267 18.4757C17.3267 18.4711 17.336 18.4643 17.3546 18.4553C17.5777 18.2646 17.7729 18.0626 17.9402 17.8492C18.1076 17.6359 18.2563 17.4202 18.3865 17.2023C18.3865 17.2023 18.3865 17.2001 18.3865 17.1955C18.3865 17.191 18.3865 17.1842 18.3865 17.1751C18.5073 16.939 18.5491 16.7166 18.512 16.5078C18.4748 16.299 18.3679 16.1128 18.1912 15.9494Z" fill="white"/>
</g>
<defs>
<clipPath id="clip0_76_3921">
<rect width="24" height="24" fill="white" transform="matrix(1 0 0 -1 0 24)"/>
</clipPath>
</defs>
</svg>
