<svg width="24" height="24" viewBox="0 0 24 24" fill="none" xmlns="http://www.w3.org/2000/svg">
<g clip-path="url(#clip0_76_3924)">
<circle cx="12" cy="12" r="12" fill="#20B038"/>
<path d="M16.9726 7.01949C16.6438 6.69201 16.2877 6.40546 15.9041 6.15984C15.5205 5.90513 15.121 5.69136 14.7055 5.51852C14.29 5.34568 13.8539 5.21832 13.3973 5.13645C12.9498 5.04548 12.4932 5 12.0274 5C11.0685 5 10.1644 5.18194 9.31507 5.54581C8.46575 5.90968 7.72603 6.40546 7.09589 7.03314C6.46575 7.66082 5.96804 8.39766 5.60274 9.24366C5.23744 10.0897 5.05479 10.9903 5.05479 11.9454C5.05479 12.5458 5.1347 13.1417 5.29452 13.7329C5.45434 14.3242 5.68493 14.8837 5.9863 15.4113L5 19L8.71233 18.0448C9.21461 18.3177 9.74429 18.527 10.3014 18.6725C10.8584 18.8181 11.4338 18.8908 12.0274 18.8908C12.9863 18.8908 13.8904 18.7089 14.7397 18.345C15.589 17.9812 16.3288 17.4854 16.9589 16.8577C17.589 16.23 18.0868 15.4932 18.4521 14.6472C18.8174 13.8012 19 12.9006 19 11.9454C19 11.4815 18.9543 11.0266 18.863 10.5809C18.7808 10.1261 18.653 9.69168 18.4795 9.27778C18.3059 8.86387 18.0913 8.46589 17.8356 8.08382C17.589 7.70175 17.3014 7.34698 16.9726 7.01949ZM12.0274 17.7173C11.5068 17.7173 10.9977 17.6491 10.5 17.5127C10.0023 17.3762 9.53425 17.1715 9.09589 16.8986L8.87671 16.7895L6.67123 17.3626L7.24658 15.2203L7.10959 15.0019C6.82648 14.538 6.60959 14.0491 6.4589 13.5351C6.30822 13.0211 6.23288 12.4912 6.23288 11.9454C6.23288 11.1449 6.38813 10.3944 6.69863 9.69396C7 8.9935 7.41324 8.38174 7.93836 7.85867C8.46347 7.33561 9.07763 6.92398 9.78082 6.62378C10.484 6.32359 11.2329 6.17349 12.0274 6.17349C12.411 6.17349 12.79 6.20988 13.1644 6.28265C13.5297 6.35543 13.8858 6.46459 14.2329 6.61014C14.5799 6.75569 14.9132 6.93307 15.2329 7.1423C15.5525 7.35153 15.8493 7.59259 16.1233 7.8655C16.3973 8.1384 16.6393 8.43405 16.8493 8.75244C17.0594 9.07083 17.2374 9.40286 17.3836 9.74854C17.5297 10.0942 17.6393 10.449 17.7123 10.8129C17.7854 11.1858 17.8219 11.5634 17.8219 11.9454C17.8219 12.7368 17.6667 13.4828 17.3562 14.1832C17.0548 14.8837 16.6416 15.4955 16.1164 16.0185C15.5913 16.5416 14.9772 16.9532 14.274 17.2534C13.5708 17.5627 12.8219 17.7173 12.0274 17.7173ZM15.2055 13.3918C15.1142 13.3554 14.911 13.2576 14.5959 13.0984C14.2808 12.9392 14.0822 12.846 14 12.8187C13.9361 12.7914 13.8699 12.7778 13.8014 12.7778C13.7329 12.7778 13.6712 12.8187 13.6164 12.9006C13.5616 13.0006 13.4703 13.1257 13.3425 13.2758C13.2146 13.4259 13.1233 13.5283 13.0685 13.5828C13.0137 13.6374 12.9612 13.6715 12.911 13.6852C12.8607 13.6988 12.7854 13.6829 12.6849 13.6374C12.6027 13.601 12.4338 13.5214 12.1781 13.3986C11.9224 13.2758 11.6256 13.0643 11.2877 12.7641C11.0411 12.5458 10.8333 12.3138 10.6644 12.0682C10.4954 11.8226 10.3836 11.6543 10.3288 11.5634C10.274 11.4815 10.2626 11.4155 10.2945 11.3655C10.3265 11.3155 10.3653 11.2632 10.411 11.2086C10.4475 11.1813 10.4863 11.1381 10.5274 11.0789C10.5685 11.0198 10.6119 10.963 10.6575 10.9084C10.7123 10.8629 10.7511 10.8197 10.774 10.7788C10.7968 10.7378 10.8219 10.6901 10.8493 10.6355C10.8767 10.5809 10.8858 10.5263 10.8767 10.4717C10.8676 10.4172 10.8493 10.3717 10.8219 10.3353C10.8037 10.2898 10.7283 10.1056 10.5959 9.78265C10.4635 9.45971 10.3653 9.21637 10.3014 9.05263C10.2192 8.8707 10.1438 8.77518 10.0753 8.76608C10.0068 8.75698 9.94521 8.75244 9.89041 8.75244C9.84475 8.75244 9.79224 8.75244 9.73288 8.75244C9.67352 8.75244 9.61644 8.75244 9.56164 8.75244C9.50685 8.75244 9.43607 8.76381 9.34932 8.78655C9.26256 8.80929 9.17808 8.8616 9.09589 8.94347C9.0137 9.03444 8.89269 9.19136 8.73288 9.41423C8.57306 9.6371 8.49315 9.96231 8.49315 10.3899C8.49315 10.8265 8.60046 11.2222 8.81507 11.577C9.02968 11.9318 9.15982 12.1365 9.20548 12.191C9.22374 12.2183 9.30594 12.3366 9.45205 12.5458C9.60731 12.7459 9.81279 12.9825 10.0685 13.2554C10.3242 13.5283 10.6301 13.8103 10.9863 14.1014C11.3425 14.3834 11.7352 14.6199 12.1644 14.8109C12.3744 14.8928 12.5616 14.9633 12.726 15.0224C12.8904 15.0815 13.032 15.1293 13.1507 15.1657C13.3699 15.2385 13.5708 15.2749 13.7534 15.2749C13.9361 15.2749 14.1005 15.2658 14.2466 15.2476C14.4292 15.2203 14.6553 15.1248 14.9247 14.961C15.1941 14.7973 15.3607 14.6108 15.4247 14.4016C15.516 14.2105 15.5662 14.0377 15.5753 13.883C15.5845 13.7284 15.5753 13.6283 15.5479 13.5828C15.5205 13.5556 15.4772 13.5283 15.4178 13.501C15.3584 13.4737 15.2877 13.4373 15.2055 13.3918Z" fill="white"/>
</g>
<defs>
<clipPath id="clip0_76_3924">
<rect width="24" height="24" fill="white" transform="matrix(1 0 0 -1 0 24)"/>
</clipPath>
</defs>
</svg>
